<svg width="17" height="21" viewBox="0 0 17 21" fill="none" xmlns="http://www.w3.org/2000/svg">
<path d="M8.50031 0.00500488C4.09622 0.00500488 0.50415 3.59707 0.50415 8.00117C0.50415 9.74798 1.0577 11.4087 2.10343 12.7988L8.00821 20.754C8.09422 20.877 8.32805 21 8.50031 21C8.68488 21 8.90637 20.8647 8.99242 20.7539C9.0169 20.717 14.9587 12.7127 15.008 12.6388C15.0203 12.6388 15.0203 12.6388 15.0203 12.6266C15.9798 11.2734 16.4964 9.67415 16.4964 8.00117C16.4965 3.59711 12.9044 0.00500488 8.50031 0.00500488ZM8.50031 12.3068C6.12616 12.3068 4.1947 10.3754 4.1947 8.00117C4.1947 5.62694 6.12616 3.69555 8.50031 3.69555C10.8745 3.69555 12.8059 5.62694 12.8059 8.00117C12.8059 10.3754 10.8745 12.3068 8.50031 12.3068Z" fill="#FF833D"/>
</svg>
